<svg viewBox="0 0 34 34" fill="none" xmlns="http://www.w3.org/2000/svg"><path d="M11 5v17.4c0 .8.3 1.5.9 2a3 3 0 0 0 2.1 1h12a3 3 0 0 0 2.1-1c.6-.5.9-1.2.9-2V9.6a2.8 2.8 0 0 0-.9-2l-5-4.8a3 3 0 0 0-2-.8H14a3 3 0 0 0-2.1.9c-.6.5-.9 1.2-.9 2v0Z" stroke="#fff" stroke-width="3" stroke-linecap="round" stroke-linejoin="round"/><path d="M23 25.3v3c0 .7-.3 1.5-.9 2a3 3 0 0 1-2.1.9H8a3 3 0 0 1-2.1-.9c-.6-.5-.9-1.3-.9-2v-16c0-.9.3-1.6.9-2.2A3 3 0 0 1 8 9.3h3" stroke="#fff" stroke-width="3" stroke-linecap="round" stroke-linejoin="round"/></svg>