<svg fill="none" xmlns="http://www.w3.org/2000/svg" viewBox="0 0 20 19"><path d="M9.7.4A9.6 9.6 0 0 0 0 10c0 4.3 2.8 7.8 6.7 9 .5.2.6-.1.6-.4v-1.7c-2.7.5-3.3-1.2-3.3-1.2-.4-1-1-1.4-1-1.4-1-.6 0-.5 0-.5 1 0 1.5 1 1.5 1 .9 1.4 2.3 1 2.9.7 0-.6.3-1 .6-1.2-2.2-.3-4.5-1.1-4.5-4.7 0-1 .4-2 1-2.6 0-.2-.4-1.2.1-2.5 0 0 .8-.3 2.7 1a9.6 9.6 0 0 1 4.9 0c1.9-1.3 2.7-1 2.7-1 .5 1.3.2 2.3 0 2.5.7.7 1 1.5 1 2.6 0 3.6-2.2 4.4-4.4 4.7.4.2.7.8.7 1.7v2.6c0 .3.1.6.6.5a9.5 9.5 0 0 0 6.7-9c0-5.3-4.4-9.6-9.8-9.6Z" fill="currentColor"/></svg>