<svg viewBox="0 0 34 34" fill="#5C5F75" xmlns="http://www.w3.org/2000/svg"><path d="m4.7 21 1.3-.3-1.3.3Zm0-8.5 1.3.3-1.3-.3Zm24.6 0-1.3.3 1.3-.3Zm0 8.5-1.3-.3 1.3.3Zm-8 7.8-.3-1.3.3 1.3Zm-8.6 0-.3 1.2.3-1.2Zm0-24L13 6l-.3-1.3Zm8.6 0L21 6l.3-1.3ZM6 20.6a17 17 0 0 1 0-7.9l-2.5-.6c-.7 3-.7 6.1 0 9l2.5-.5Zm22-7.9a17 17 0 0 1 0 7.9l2.5.6c.7-3 .7-6.1 0-9l-2.5.5Zm-7 14.7a18 18 0 0 1-8 0l-.6 2.5c3 .7 6.2.7 9.2 0l-.6-2.5ZM13 6a18 18 0 0 1 8 0l.6-2.5c-3-.7-6.2-.7-9.2 0L13 6Zm0 21.5a9.3 9.3 0 0 1-7-6.8l-2.5.6c1 4.3 4.5 7.7 8.9 8.7l.6-2.5Zm8.6 2.5c4.4-1 7.8-4.4 8.9-8.7l-2.5-.6c-.8 3.4-3.5 6-7 6.8l.6 2.5ZM21 6c3.5.8 6.2 3.4 7 6.8l2.5-.6c-1-4.3-4.5-7.7-8.9-8.7L21 6Zm-8.6-2.5C8 4.5 4.6 8 3.5 12.2l2.5.6c.8-3.4 3.5-6 7-6.8l-.6-2.5Zm8.8 26.3.1-4.6c.2-1 .4-1.6.8-2l-1.7-1.7c-1 .9-1.3 2-1.5 3.3-.2 1.3-.2 3-.2 5h2.5Zm7.6-10c-2 0-3.7 0-5 .2-1.4.2-2.5.6-3.4 1.5l1.7 1.7c.4-.3 1-.6 2-.7 1.1-.2 2.6-.2 4.7-.2v-2.5Z"/><path d="M12.8 12.8H17M12.7 17h7.1" fill="#5C5F75" stroke="#5C5F75" stroke-width="2.5" stroke-linecap="round"/></svg>