<svg viewBox="0 0 34 34" fill="#fff" xmlns="http://www.w3.org/2000/svg"><path d="M12.3 26.8H7.5c-.3 0-.6-.1-.8-.3a1 1 0 0 1-.3-.8v-4.3a1 1 0 0 0-.4-.8c-.2-.2-.5-.3-.8-.3-.3 0-.6 0-.9.3a1 1 0 0 0-.3.8v4.3c0 .9.4 1.7 1 2.3.7.7 1.6 1 2.5 1h4.8c.3 0 .6-.1.8-.3.2-.2.4-.5.4-.8a1 1 0 0 0-.4-.8c-.2-.2-.5-.3-.8-.3Zm16.5-6.5c-.3 0-.6 0-.8.3a1 1 0 0 0-.4.8v4.3c0 .3 0 .6-.3.8-.2.2-.5.3-.8.3h-4.8c-.3 0-.6.1-.8.3a1 1 0 0 0-.4.8c0 .3.2.6.4.8.2.2.5.3.8.3h4.8c.9 0 1.8-.3 2.5-1 .6-.6 1-1.4 1-2.3v-4.3a1 1 0 0 0-.3-.8l-.9-.3ZM26.5 5h-4.8c-.3 0-.6.1-.8.3a1 1 0 0 0-.4.8c0 .3.2.6.4.8.2.2.5.3.8.3h4.8c.3 0 .6.1.8.3.2.2.3.5.3.8v4.3c0 .3.2.6.4.8.2.2.5.3.8.3.3 0 .6 0 .9-.3.2-.2.3-.5.3-.8V8.3c0-.9-.4-1.7-1-2.3-.7-.7-1.6-1-2.5-1ZM5.2 13.7c.3 0 .6 0 .8-.3.2-.2.4-.5.4-.8V8.3c0-.3 0-.6.3-.8.2-.2.5-.3.8-.3h4.8c.3 0 .6-.1.8-.3.2-.2.4-.5.4-.8a1 1 0 0 0-.4-.8c-.2-.2-.5-.3-.8-.3H7.5c-.9 0-1.8.3-2.5 1-.6.6-1 1.4-1 2.3v4.3c0 .3.1.6.3.8l.9.3Zm9.4-4.3H10c-.3 0-.6 0-.8.3a1 1 0 0 0-.4.8v4.3c0 .3.2.6.4.8.2.2.5.3.8.3h4.7c.3 0 .7-.1.9-.3.2-.2.3-.5.3-.8v-4.3a1 1 0 0 0-.3-.8c-.2-.2-.6-.3-.9-.3Zm-1.1 4.3H11v-2.2h2.4v2.2Zm5.9 2.2H24c.3 0 .6-.1.8-.3.2-.2.4-.5.4-.8v-4.3a1 1 0 0 0-.4-.8c-.2-.2-.5-.3-.8-.3h-4.7c-.3 0-.7 0-.9.3a1 1 0 0 0-.3.8v4.3c0 .3.1.6.3.8.2.2.6.3.9.3Zm1.1-4.4H23v2.2h-2.4v-2.2Zm-5.9 6.6H10c-.3 0-.6.1-.8.3a1 1 0 0 0-.4.8v4.3c0 .3.2.6.4.8.2.2.5.3.8.3h4.7c.3 0 .7 0 .9-.3.2-.2.3-.5.3-.8v-4.3a1 1 0 0 0-.3-.8c-.2-.2-.6-.3-.9-.3Zm-1.1 4.4H11v-2.2h2.4v2.2Zm5.9-1.1c.3 0 .6-.2.8-.4.2-.2.3-.4.3-.7.4 0 .7-.1.9-.3.2-.3.3-.5.3-.8a1 1 0 0 0-.3-.8c-.2-.2-.5-.3-.9-.3h-1.1c-.3 0-.7.1-.9.3a1 1 0 0 0-.3.8v1c0 .4.1.6.3.8.2.2.6.4.9.4ZM24 18c-.3 0-.6.1-.8.3a1 1 0 0 0-.4.8v3.3c-.3 0-.6 0-.8.3a1 1 0 0 0-.4.7c0 .3.2.6.4.8.2.2.5.3.8.3h1.2c.3 0 .6 0 .8-.3.2-.2.4-.5.4-.8v-4.3a1 1 0 0 0-.4-.8c-.2-.2-.5-.3-.8-.3Zm-4.7 4.4-.7.1-.4.5-.1.7c0 .2.2.4.3.5l.6.3h.7l.5-.4a1 1 0 0 0-.1-1.4c-.2-.2-.5-.3-.8-.3Z"/></svg>