<svg viewBox="0 0 32 32" fill="#5C5E74" xmlns="http://www.w3.org/2000/svg"><path d="M4.3 8.7a1.3 1.3 0 0 0 0 2.5V8.7Zm25.4 2.5a1.2 1.2 0 1 0 0-2.5v2.5ZM7.1 10V8.7H5.8V10h1.3Zm19.8 0h1.3V8.7h-1.3V10Zm-1 13.8 1.3.4-1.2-.4Zm-6.5 5.7.3 1.3-.3-1.3Zm-4.8 0 .2-1.2-.2 1.2Zm-.3 0-.2 1.2.2-1.2ZM8 23.8l-1.2.4 1.2-.4Zm11.7 5.7-.2-1.2.2 1.2ZM11 7.8l1.1.5-1-.5Zm1.4-1.9-.8-1 .8 1Zm2-1.2.5 1.2-.4-1.2Zm5 0 .4-1.2-.5 1.2Zm3.4 3 1.1-.4-1.1.5ZM4.3 11.3h25.4V8.7H4.4v2.5Zm15.2 17-.3.1.5 2.5h.2l-.4-2.5Zm-4.7.1h-.3l-.4 2.4h.2l.5-2.4ZM25.7 10v7.2h2.5V10h-2.5ZM8.3 17.2V10H5.8v7.2h2.5Zm17.4 0c0 2.2-.3 4.3-1 6.3l2.5.7a25 25 0 0 0 1-7h-2.5Zm-6.5 11.1c-1.4.3-3 .3-4.4 0l-.5 2.5c1.8.3 3.6.3 5.4 0l-.5-2.5Zm-4.7 0a6.7 6.7 0 0 1-5.3-4.8l-2.4.7c1 3.4 3.8 6 7.3 6.5l.4-2.4Zm-5.3-4.8c-.6-2-.9-4.1-.9-6.3H5.8c0 2.4.4 4.7 1 7l2.4-.7ZM20 30.7a9.2 9.2 0 0 0 7.3-6.5l-2.4-.7a6.7 6.7 0 0 1-5.3 4.8l.4 2.4Zm-8-20.7c0-.6.1-1.2.3-1.7l-2.2-1C9.6 8 9.4 9 9.4 10h2.5Zm.3-1.7 1.1-1.4-1.6-2A7 7 0 0 0 10 7.4l2.2 1Zm1.1-1.4c.5-.5 1-.8 1.7-1l-.9-2.4c-.9.4-1.7.9-2.4 1.5l1.6 1.9Zm1.7-1c.6-.3 1.3-.4 2-.4V3c-1 0-2 .2-2.9.5L15 6Zm2-.4c.7 0 1.4.1 2 .4l.9-2.4c-1-.3-2-.5-2.9-.5v2.5Zm2 .4c.6.2 1.2.5 1.7 1l1.6-2A7.7 7.7 0 0 0 20 3.6L19 6Zm1.7 1c.4.4.8.9 1 1.4l2.3-1A7 7 0 0 0 22.3 5l-1.6 1.9Zm1 1.4c.3.5.4 1.1.4 1.7h2.5c0-1-.2-1.9-.6-2.7l-2.2 1Zm-14.6 3h19.8V8.6H7.1v2.5Z"/><path d="M14.2 17v5.7m5.6-5.7v5.7" stroke="#5C5E74" stroke-width="2.5" stroke-linecap="round"/></svg>